<svg xmlns="http://www.w3.org/2000/svg" height="24px" viewBox="0 -960 960 960" width="24px" fill="#e3e3e3"><path d="M211.5-211.5Q200-223 200-240t11.5-28.5Q223-280 240-280t28.5 11.5Q280-257 280-240t-11.5 28.5Q257-200 240-200t-28.5-11.5Zm240 0Q440-223 440-240t11.5-28.5Q463-280 480-280t28.5 11.5Q520-257 520-240t-11.5 28.5Q497-200 480-200t-28.5-11.5Zm240 0Q680-223 680-240t11.5-28.5Q703-280 720-280t28.5 11.5Q760-257 760-240t-11.5 28.5Q737-200 720-200t-28.5-11.5Zm-480-240Q200-463 200-480t11.5-28.5Q223-520 240-520t28.5 11.5Q280-497 280-480t-11.5 28.5Q257-440 240-440t-28.5-11.5Zm240 0Q440-463 440-480t11.5-28.5Q463-520 480-520t28.5 11.5Q520-497 520-480t-11.5 28.5Q497-440 480-440t-28.5-11.5Zm240 0Q680-463 680-480t11.5-28.5Q703-520 720-520t28.5 11.5Q760-497 760-480t-11.5 28.5Q737-440 720-440t-28.5-11.5Zm-480-240Q200-703 200-720t11.5-28.5Q223-760 240-760t28.5 11.5Q280-737 280-720t-11.5 28.5Q257-680 240-680t-28.5-11.5Zm240 0Q440-703 440-720t11.5-28.5Q463-760 480-760t28.5 11.5Q520-737 520-720t-11.5 28.5Q497-680 480-680t-28.5-11.5Zm240 0Q680-703 680-720t11.5-28.5Q703-760 720-760t28.5 11.5Q760-737 760-720t-11.5 28.5Q737-680 720-680t-28.5-11.5Z"/></svg>