<svg xmlns="http://www.w3.org/2000/svg" height="24px" viewBox="0 -960 960 960" width="24px" fill="#e3e3e3"><path d="M210-510q-30 0-51-21t-21-51v-168q0-30 21-51t51-21h168q30 0 51 21t21 51v168q0 30-21 51t-51 21H210Zm372 0q-30 0-51-21t-21-51v-168q0-30 21-51t51-21h168q30 0 51 21t21 51v168q0 30-21 51t-51 21H582ZM210-138q-30 0-51-21t-21-51v-168q0-30 21-51t51-21h168q30 0 51 21t21 51v168q0 30-21 51t-51 21H210Zm372 0q-30 0-51-21t-21-51v-168q0-30 21-51t51-21h168q30 0 51 21t21 51v168q0 30-21 51t-51 21H582Z"/></svg>