<svg xmlns="http://www.w3.org/2000/svg" height="24px" viewBox="0 -960 960 960" width="24px" fill="#e3e3e3"><path d="M189-186q-51 0-86-35t-35-86q0-8 .5-15t2.5-15l84-336q12-45 48-73t82-28h390q46 0 82 28t48 73l84 336q2 8 3 15.5t1 15.5q0 51-35.5 85.5T771-186q-35 0-64-18.5T662-254l-29-59q-8-17-24-25t-34-8H385q-18 0-34 8t-24 25l-29 59q-15 32-44.5 50T189-186Zm370.5-354.5Q568-549 568-560t-8.5-19.5Q551-588 540-588t-19.5 8.5Q512-571 512-560t8.5 19.5Q529-532 540-532t19.5-8.5Zm80-80Q648-629 648-640t-8.5-19.5Q631-668 620-668t-19.5 8.5Q592-651 592-640t8.5 19.5Q609-612 620-612t19.5-8.5Zm0 160Q648-469 648-480t-8.5-19.5Q631-508 620-508t-19.5 8.5Q592-491 592-480t8.5 19.5Q609-452 620-452t19.5-8.5Zm80-80Q728-549 728-560t-8.5-19.5Q711-588 700-588t-19.5 8.5Q672-571 672-560t8.5 19.5Q689-532 700-532t19.5-8.5ZM350-480q4-4 4-10v-56h56q6 0 10-4t4-10q0-6-4-10t-10-4h-56v-56q0-6-4-10t-10-4q-6 0-10 4t-4 10v56h-56q-6 0-10 4t-4 10q0 6 4 10t10 4h56v56q0 6 4 10t10 4q6 0 10-4Z"/></svg>