<svg xmlns="http://www.w3.org/2000/svg" height="24px" viewBox="0 -960 960 960" width="24px" fill="#e3e3e3"><path d="M176-316q-15 0-25.5-10.5T140-352v-256q0-15 10.5-25.5T176-644q15 0 25.5 10.5T212-608v256q0 15-10.5 25.5T176-316Zm152 116q-15 0-25.5-10.5T292-236v-488q0-15 10.5-25.5T328-760q15 0 25.5 10.5T364-724v488q0 15-10.5 25.5T328-200Zm152-48q-15 0-25.5-10.5T444-284v-392q0-15 10.5-25.5T480-712q15 0 25.5 10.5T516-676v392q0 15-10.5 25.5T480-248Zm152 96q-15 0-25.5-10.5T596-188v-584q0-15 10.5-25.5T632-808q15 0 25.5 10.5T668-772v584q0 15-10.5 25.5T632-152Zm152-196q-15 0-25.5-10.5T748-384v-192q0-15 10.5-25.5T784-612q15 0 25.5 10.5T820-576v192q0 15-10.5 25.5T784-348Z"/></svg>