<svg xmlns="http://www.w3.org/2000/svg" height="24px" viewBox="0 -960 960 960" width="24px" fill="#e3e3e3"><path d="M232-172q-25 0-42.5-17.5T172-232v-496q0-25 17.5-42.5T232-788h496q25 0 42.5 17.5T788-728v496q0 25-17.5 42.5T728-172H232Zm0-28h496q14 0 23-9t9-23v-448H200v448q0 14 9 23t23 9Zm139.5-162Q323-392 297-440q26-48 74.5-78T480-548q60 0 108.5 30t74.5 78q-26 48-74.5 78T480-332q-60 0-108.5-30Zm80-49.5Q440-423 440-440t11.5-28.5Q463-480 480-480t28.5 11.5Q520-457 520-440t-11.5 28.5Q497-400 480-400t-28.5-11.5ZM528-392q20-20 20-48t-20-48q-20-20-48-20t-48 20q-20 20-20 48t20 48q20 20 48 20t48-20Z"/></svg>